<?xml version="1.0" encoding="utf-8"?>
<!-- Generator: Adobe Illustrator 24.3.0, SVG Export Plug-In . SVG Version: 6.00 Build 0)  -->
<svg version="1.1" id="Layer_1" xmlns="http://www.w3.org/2000/svg" xmlns:xlink="http://www.w3.org/1999/xlink" x="0px" y="0px"
	 viewBox="0 0 967.73 215.71" style="enable-background:new 0 0 967.73 215.71;" xml:space="preserve">
<g>
	<g>
		<g>
			<g>
				<path style="fill:#F47907;" d="M46,51.14h76.94v22.38h-53.7v22.2h50.43v22.38H69.24v24.27h54.39v22.38H46V51.14z"/>
				<path style="fill:#F47907;" d="M182.84,51.14h44.24l36.83,113.6h-25.13l-12.05-34.77h-43.89l-11.71,34.77h-25.13L182.84,51.14z
					 M220.54,107.59l-14.46-46.47h-2.24l-14.46,46.47H220.54z"/>
				<path style="fill:#F47907;" d="M340.68,75.67c-3.21-2.47-8.15-3.7-14.8-3.7c-13.54,0-20.31,4.19-20.31,12.57
					c0,2.41,0.46,4.28,1.38,5.59c0.92,1.32,2.64,2.44,5.16,3.36c2.52,0.92,6.42,1.84,11.7,2.75l12.22,2.24
					c10.9,1.95,19.59,5.48,26.08,10.59c6.48,5.11,9.72,12.82,9.72,23.15c0,11.25-4.13,19.74-12.39,25.47
					c-8.26,5.74-18.93,8.61-32.02,8.61c-8.72,0-16.7-1.55-23.92-4.65c-7.23-3.1-13.03-7.83-17.38-14.2
					c-4.36-6.37-6.6-14.26-6.71-23.67h23.24c0.23,7.57,2.41,12.82,6.54,15.75c4.13,2.93,10.21,4.39,18.25,4.39
					c7.34,0,12.71-0.89,16.09-2.67c3.38-1.78,5.08-4.79,5.08-9.04c0-5.97-6.48-10.04-19.45-12.22l-12.57-2.24
					c-9.87-1.72-18.05-5.02-24.53-9.9c-6.48-4.88-9.73-12.59-9.73-23.15c0-7.46,1.95-13.86,5.85-19.19
					c3.9-5.34,9.15-9.35,15.75-12.05c6.6-2.69,13.91-4.04,21.95-4.04c8.26,0,15.72,1.44,22.38,4.3c6.65,2.87,11.99,7.2,16.01,13
					c4.02,5.8,6.08,13,6.2,21.6h-23.92C345.85,82.35,343.89,78.13,340.68,75.67z"/>
				<path style="fill:#F47907;" d="M417.45,51.14v113.6h-23.24V51.14H417.45z"/>
			</g>
		</g>
		<g>
			<g>
				<path style="fill:#435261;" d="M476.45,48.24v12.28h13.38v3.95h-13.38v12.65h14.96v3.95h-19.76V44.29h19.76v3.95H476.45z"/>
				<path style="fill:#435261;" d="M527.56,81.07h-4.79l-19.28-29.24v29.24h-4.8V44.29h4.8l19.28,29.19V44.29h4.79V81.07z"/>
				<path style="fill:#435261;" d="M563.54,54.99c-1.02-2.14-2.49-3.8-4.43-4.98c-1.93-1.18-4.18-1.76-6.74-1.76
					c-2.56,0-4.87,0.59-6.93,1.76c-2.05,1.18-3.67,2.86-4.85,5.06c-1.18,2.2-1.77,4.73-1.77,7.61c0,2.88,0.59,5.41,1.77,7.59
					c1.18,2.18,2.79,3.86,4.85,5.03c2.06,1.18,4.37,1.76,6.93,1.76c3.58,0,6.53-1.07,8.85-3.21c2.32-2.14,3.67-5.04,4.06-8.69
					h-14.65v-3.9h19.76v3.69c-0.28,3.02-1.23,5.79-2.85,8.3c-1.62,2.51-3.74,4.5-6.38,5.95c-2.63,1.46-5.57,2.19-8.8,2.19
					c-3.41,0-6.52-0.8-9.33-2.4c-2.81-1.6-5.03-3.82-6.67-6.67c-1.63-2.84-2.45-6.06-2.45-9.64c0-3.58,0.82-6.8,2.45-9.67
					c1.63-2.86,3.85-5.09,6.67-6.69c2.81-1.6,5.92-2.4,9.33-2.4c3.9,0,7.35,0.97,10.35,2.9c3,1.93,5.19,4.65,6.56,8.17H563.54z"/>
				<path style="fill:#435261;" d="M581.51,44.34v36.73h-4.79V44.34H581.51z"/>
				<path style="fill:#435261;" d="M618.55,81.07h-4.79l-19.28-29.24v29.24h-4.8V44.29h4.8l19.28,29.19V44.29h4.79V81.07z"/>
				<path style="fill:#435261;" d="M631.51,48.24v12.28h13.38v3.95h-13.38v12.65h14.96v3.95h-19.76V44.29h19.76v3.95H631.51z"/>
				<path style="fill:#435261;" d="M658.54,48.24v12.28h13.38v3.95h-13.38v12.65h14.96v3.95h-19.76V44.29h19.76v3.95H658.54z"/>
				<path style="fill:#435261;" d="M700.11,81.07l-8.75-15.02h-5.8v15.02h-4.79V44.34h11.86c2.77,0,5.12,0.47,7.03,1.42
					c1.91,0.95,3.35,2.23,4.29,3.85c0.95,1.62,1.42,3.46,1.42,5.53c0,2.53-0.73,4.76-2.19,6.69c-1.46,1.93-3.64,3.21-6.56,3.85
					l9.22,15.39H700.11z M685.57,62.21h7.06c2.6,0,4.55-0.64,5.85-1.92c1.3-1.28,1.95-2.99,1.95-5.14c0-2.18-0.64-3.86-1.92-5.06
					c-1.28-1.19-3.24-1.79-5.88-1.79h-7.06V62.21z"/>
				<path style="fill:#435261;" d="M717.61,44.34v36.73h-4.79V44.34H717.61z"/>
				<path style="fill:#435261;" d="M754.65,81.07h-4.79l-19.28-29.24v29.24h-4.79V44.29h4.79l19.28,29.19V44.29h4.79V81.07z"/>
				<path style="fill:#435261;" d="M790.64,54.99c-1.02-2.14-2.49-3.8-4.43-4.98c-1.93-1.18-4.18-1.76-6.74-1.76
					c-2.56,0-4.87,0.59-6.93,1.76c-2.05,1.18-3.67,2.86-4.85,5.06c-1.18,2.2-1.77,4.73-1.77,7.61c0,2.88,0.59,5.41,1.77,7.59
					c1.18,2.18,2.79,3.86,4.85,5.03c2.06,1.18,4.37,1.76,6.93,1.76c3.58,0,6.53-1.07,8.85-3.21c2.32-2.14,3.67-5.04,4.06-8.69
					h-14.65v-3.9h19.76v3.69c-0.28,3.02-1.23,5.79-2.85,8.3c-1.62,2.51-3.74,4.5-6.38,5.95c-2.63,1.46-5.57,2.19-8.8,2.19
					c-3.41,0-6.52-0.8-9.33-2.4c-2.81-1.6-5.03-3.82-6.66-6.67c-1.63-2.84-2.45-6.06-2.45-9.64c0-3.58,0.82-6.8,2.45-9.67
					c1.63-2.86,3.85-5.09,6.66-6.69c2.81-1.6,5.92-2.4,9.33-2.4c3.9,0,7.35,0.97,10.35,2.9c3,1.93,5.19,4.65,6.56,8.17H790.64z"/>
				<path style="fill:#435261;" d="M493.36,131.36h-16.02l-2.95,8.17h-5.06l13.28-36.51h5.53l13.23,36.51h-5.06L493.36,131.36z
					 M491.99,127.46l-6.64-18.55l-6.64,18.55H491.99z"/>
				<path style="fill:#435261;" d="M536.04,139.52h-4.79l-19.28-29.24v29.24h-4.8v-36.78h4.8l19.28,29.19v-29.19h4.79V139.52z"/>
				<path style="fill:#435261;" d="M566.05,105.04c2.93,1.49,5.18,3.63,6.75,6.4c1.56,2.77,2.34,6.04,2.34,9.8
					c0,3.76-0.78,7.02-2.34,9.77c-1.56,2.76-3.81,4.87-6.75,6.32c-2.93,1.46-6.4,2.19-10.41,2.19h-11.43V102.8h11.43
					C559.64,102.8,563.11,103.54,566.05,105.04z M566.49,131.8c2.49-2.51,3.74-6.03,3.74-10.56c0-4.57-1.26-8.13-3.77-10.7
					c-2.51-2.56-6.12-3.85-10.83-3.85H549v28.87h6.64C560.38,135.57,564,134.32,566.49,131.8z"/>
				<path style="fill:#435261;" d="M617.23,131.36h-16.02l-2.95,8.17h-5.06l13.28-36.51h5.53l13.23,36.51h-5.06L617.23,131.36z
					 M615.86,127.46l-6.64-18.55l-6.64,18.55H615.86z"/>
				<path style="fill:#435261;" d="M652.46,121.16c-2.09,2.02-5.28,3.03-9.56,3.03h-7.06v15.33h-4.79V102.8h11.86
					c4.14,0,7.3,1,9.46,3c2.16,2,3.24,4.58,3.24,7.75C655.59,116.6,654.55,119.14,652.46,121.16z M648.8,118.5
					c1.26-1.16,1.9-2.81,1.9-4.95c0-4.53-2.6-6.8-7.8-6.8h-7.06v13.49h7.06C645.56,120.24,647.53,119.66,648.8,118.5z"/>
				<path style="fill:#435261;" d="M682.97,121.16c-2.09,2.02-5.28,3.03-9.56,3.03h-7.06v15.33h-4.79V102.8h11.86
					c4.14,0,7.3,1,9.46,3c2.16,2,3.24,4.58,3.24,7.75C686.1,116.6,685.06,119.14,682.97,121.16z M679.31,118.5
					c1.26-1.16,1.9-2.81,1.9-4.95c0-4.53-2.6-6.8-7.8-6.8h-7.06v13.49h7.06C676.07,120.24,678.04,119.66,679.31,118.5z"/>
				<path style="fill:#435261;" d="M696.85,135.62h12.86v3.9h-17.65V102.8h4.79V135.62z"/>
				<path style="fill:#435261;" d="M719.61,102.8v36.73h-4.79V102.8H719.61z"/>
				<path style="fill:#435261;" d="M732.57,106.7v12.28h13.38v3.95h-13.38v12.65h14.96v3.95h-19.76v-36.78h19.76v3.95H732.57z"/>
				<path style="fill:#435261;" d="M776.65,105.04c2.93,1.49,5.18,3.63,6.75,6.4c1.56,2.77,2.34,6.04,2.34,9.8
					c0,3.76-0.78,7.02-2.34,9.77c-1.56,2.76-3.81,4.87-6.75,6.32c-2.93,1.46-6.4,2.19-10.41,2.19h-11.43V102.8h11.43
					C770.25,102.8,773.72,103.54,776.65,105.04z M777.1,131.8c2.49-2.51,3.74-6.03,3.74-10.56c0-4.57-1.26-8.13-3.77-10.7
					c-2.51-2.56-6.12-3.85-10.83-3.85h-6.64v28.87h6.64C770.98,135.57,774.6,134.32,777.1,131.8z"/>
				<path style="fill:#435261;" d="M476.79,197.06c-1.92-0.86-3.42-2.06-4.5-3.58c-1.09-1.53-1.65-3.29-1.69-5.3h5.11
					c0.18,1.72,0.89,3.17,2.13,4.35c1.25,1.18,3.06,1.76,5.45,1.76c2.28,0,4.08-0.57,5.4-1.71s1.98-2.61,1.98-4.4
					c0-1.4-0.39-2.55-1.16-3.42c-0.77-0.88-1.74-1.54-2.9-2c-1.16-0.46-2.72-0.95-4.69-1.48c-2.42-0.63-4.37-1.26-5.82-1.9
					c-1.46-0.63-2.71-1.62-3.74-2.98c-1.04-1.35-1.55-3.17-1.55-5.45c0-2,0.51-3.78,1.53-5.32c1.02-1.54,2.45-2.74,4.29-3.58
					c1.84-0.84,3.96-1.26,6.35-1.26c3.44,0,6.26,0.86,8.46,2.58c2.2,1.72,3.43,4,3.71,6.85h-5.27c-0.18-1.4-0.91-2.64-2.21-3.71
					c-1.3-1.07-3.02-1.61-5.16-1.61c-2,0-3.64,0.52-4.9,1.55c-1.26,1.04-1.9,2.49-1.9,4.35c0,1.33,0.38,2.42,1.13,3.27
					c0.75,0.84,1.69,1.48,2.79,1.92c1.11,0.44,2.66,0.94,4.66,1.5c2.42,0.67,4.37,1.33,5.85,1.98c1.48,0.65,2.74,1.65,3.79,3
					c1.05,1.35,1.58,3.19,1.58,5.51c0,1.79-0.47,3.48-1.42,5.06c-0.95,1.58-2.35,2.86-4.22,3.85c-1.86,0.98-4.06,1.48-6.59,1.48
					C480.87,198.35,478.7,197.92,476.79,197.06z"/>
				<path style="fill:#435261;" d="M503.21,169.92c1.62-2.86,3.82-5.1,6.61-6.72c2.79-1.62,5.89-2.42,9.3-2.42
					c4,0,7.5,0.97,10.49,2.9c2.99,1.93,5.16,4.67,6.53,8.22h-5.74c-1.02-2.21-2.49-3.92-4.4-5.11c-1.92-1.19-4.21-1.79-6.88-1.79
					c-2.56,0-4.87,0.6-6.9,1.79c-2.04,1.19-3.64,2.89-4.79,5.08c-1.16,2.2-1.74,4.77-1.74,7.72c0,2.92,0.58,5.47,1.74,7.67
					c1.16,2.2,2.76,3.89,4.79,5.08c2.04,1.19,4.34,1.79,6.9,1.79c2.67,0,4.96-0.59,6.88-1.76c1.91-1.18,3.38-2.87,4.4-5.08h5.74
					c-1.37,3.51-3.55,6.23-6.53,8.14c-2.99,1.92-6.48,2.87-10.49,2.87c-3.41,0-6.51-0.8-9.3-2.4c-2.79-1.6-5-3.82-6.61-6.67
					c-1.62-2.84-2.42-6.06-2.42-9.64C500.79,176,501.6,172.78,503.21,169.92z"/>
				<path style="fill:#435261;" d="M548.05,161.25v36.73h-4.79v-36.73H548.05z"/>
				<path style="fill:#435261;" d="M561.01,165.15v12.28h13.38v3.95h-13.38v12.65h14.96v3.95h-19.76V161.2h19.76v3.95H561.01z"/>
				<path style="fill:#435261;" d="M612.12,197.98h-4.79l-19.28-29.24v29.24h-4.79V161.2h4.79l19.28,29.19V161.2h4.79V197.98z"/>
				<path style="fill:#435261;" d="M620.92,169.92c1.62-2.86,3.82-5.1,6.61-6.72c2.79-1.62,5.89-2.42,9.3-2.42
					c4,0,7.5,0.97,10.49,2.9c2.99,1.93,5.16,4.67,6.53,8.22h-5.74c-1.02-2.21-2.49-3.92-4.4-5.11c-1.91-1.19-4.21-1.79-6.88-1.79
					c-2.56,0-4.87,0.6-6.9,1.79c-2.04,1.19-3.64,2.89-4.79,5.08c-1.16,2.2-1.74,4.77-1.74,7.72c0,2.92,0.58,5.47,1.74,7.67
					c1.16,2.2,2.76,3.89,4.79,5.08c2.04,1.19,4.34,1.79,6.9,1.79c2.67,0,4.96-0.59,6.88-1.76c1.91-1.18,3.38-2.87,4.4-5.08h5.74
					c-1.37,3.51-3.55,6.23-6.53,8.14c-2.99,1.92-6.48,2.87-10.49,2.87c-3.41,0-6.51-0.8-9.3-2.4c-2.79-1.6-5-3.82-6.61-6.67
					c-1.62-2.84-2.42-6.06-2.42-9.64C618.5,176,619.31,172.78,620.92,169.92z"/>
				<path style="fill:#435261;" d="M665.76,165.15v12.28h13.38v3.95h-13.38v12.65h14.96v3.95h-19.76V161.2h19.76v3.95H665.76z"/>
				<path style="fill:#435261;" d="M693.13,197.06c-1.92-0.86-3.42-2.06-4.5-3.58c-1.09-1.53-1.65-3.29-1.69-5.3h5.11
					c0.18,1.72,0.89,3.17,2.13,4.35c1.25,1.18,3.06,1.76,5.45,1.76c2.28,0,4.08-0.57,5.4-1.71s1.98-2.61,1.98-4.4
					c0-1.4-0.39-2.55-1.16-3.42c-0.77-0.88-1.74-1.54-2.9-2c-1.16-0.46-2.72-0.95-4.69-1.48c-2.42-0.63-4.37-1.26-5.82-1.9
					c-1.46-0.63-2.71-1.62-3.74-2.98c-1.04-1.35-1.55-3.17-1.55-5.45c0-2,0.51-3.78,1.53-5.32c1.02-1.54,2.45-2.74,4.29-3.58
					c1.84-0.84,3.96-1.26,6.35-1.26c3.44,0,6.26,0.86,8.46,2.58c2.2,1.72,3.43,4,3.71,6.85h-5.27c-0.18-1.4-0.91-2.64-2.21-3.71
					c-1.3-1.07-3.02-1.61-5.16-1.61c-2,0-3.64,0.52-4.9,1.55c-1.26,1.04-1.9,2.49-1.9,4.35c0,1.33,0.38,2.42,1.13,3.27
					c0.75,0.84,1.69,1.48,2.79,1.92c1.11,0.44,2.66,0.94,4.66,1.5c2.42,0.67,4.37,1.33,5.85,1.98c1.48,0.65,2.74,1.65,3.79,3
					c1.05,1.35,1.58,3.19,1.58,5.51c0,1.79-0.47,3.48-1.42,5.06c-0.95,1.58-2.35,2.86-4.22,3.85c-1.86,0.98-4.06,1.48-6.59,1.48
					C697.22,198.35,695.05,197.92,693.13,197.06z"/>
				<path style="fill:#435261;" d="M737.79,161.25v36.73h-4.79v-36.73H737.79z"/>
				<path style="fill:#435261;" d="M774.83,197.98h-4.79l-19.28-29.24v29.24h-4.79V161.2h4.79l19.28,29.19V161.2h4.79V197.98z"/>
				<path style="fill:#435261;" d="M788.13,197.06c-1.92-0.86-3.42-2.06-4.5-3.58c-1.09-1.53-1.65-3.29-1.69-5.3h5.11
					c0.18,1.72,0.89,3.17,2.13,4.35c1.25,1.18,3.06,1.76,5.45,1.76c2.28,0,4.08-0.57,5.4-1.71s1.98-2.61,1.98-4.4
					c0-1.4-0.39-2.55-1.16-3.42c-0.77-0.88-1.74-1.54-2.9-2c-1.16-0.46-2.72-0.95-4.69-1.48c-2.42-0.63-4.37-1.26-5.82-1.9
					c-1.46-0.63-2.71-1.62-3.74-2.98c-1.04-1.35-1.55-3.17-1.55-5.45c0-2,0.51-3.78,1.53-5.32c1.02-1.54,2.45-2.74,4.29-3.58
					c1.84-0.84,3.96-1.26,6.35-1.26c3.44,0,6.26,0.86,8.46,2.58c2.2,1.72,3.43,4,3.71,6.85h-5.27c-0.18-1.4-0.91-2.64-2.21-3.71
					c-1.3-1.07-3.02-1.61-5.16-1.61c-2,0-3.64,0.52-4.9,1.55c-1.26,1.04-1.9,2.49-1.9,4.35c0,1.33,0.38,2.42,1.13,3.27
					c0.75,0.84,1.69,1.48,2.79,1.92c1.11,0.44,2.66,0.94,4.66,1.5c2.42,0.67,4.37,1.33,5.85,1.98c1.48,0.65,2.74,1.65,3.79,3
					c1.05,1.35,1.58,3.19,1.58,5.51c0,1.79-0.47,3.48-1.42,5.06c-0.95,1.58-2.35,2.86-4.22,3.85c-1.86,0.98-4.06,1.48-6.59,1.48
					C792.22,198.35,790.05,197.92,788.13,197.06z"/>
				<path style="fill:#435261;" d="M836.53,161.25v3.9h-10.01v32.83h-4.79v-32.83h-10.06v-3.9H836.53z"/>
				<path style="fill:#435261;" d="M847.23,161.25v36.73h-4.79v-36.73H847.23z"/>
				<path style="fill:#435261;" d="M878,161.25v3.9h-10.01v32.83h-4.79v-32.83h-10.06v-3.9H878z"/>
				<path style="fill:#435261;" d="M888.59,161.25v23.24c0,3.27,0.8,5.69,2.4,7.27c1.6,1.58,3.82,2.37,6.67,2.37
					c2.81,0,5.01-0.79,6.61-2.37c1.6-1.58,2.4-4,2.4-7.27v-23.24h4.8v23.18c0,3.06-0.62,5.63-1.84,7.72
					c-1.23,2.09-2.89,3.64-4.98,4.66c-2.09,1.02-4.43,1.53-7.03,1.53c-2.6,0-4.94-0.51-7.03-1.53c-2.09-1.02-3.74-2.57-4.95-4.66
					c-1.21-2.09-1.82-4.66-1.82-7.72v-23.18H888.59z"/>
				<path style="fill:#435261;" d="M942.07,161.25v3.9h-10.01v32.83h-4.79v-32.83H917.2v-3.9H942.07z"/>
				<path style="fill:#435261;" d="M952.76,165.15v12.28h13.38v3.95h-13.38v12.65h14.96v3.95h-19.76V161.2h19.76v3.95H952.76z"/>
			</g>
		</g>
	</g>
	<g>
		<polygon style="fill:#F47907;" points="955.32,5.5 955.32,136.65 960.82,136.65 960.82,0 424.35,0 424.35,5.5 		"/>
		<polygon style="fill:#F47907;" points="5.5,210.21 5.5,122.53 0,122.53 0,215.71 439.41,215.71 439.41,210.21 		"/>
	</g>
</g>
<g>
</g>
<g>
</g>
<g>
</g>
<g>
</g>
<g>
</g>
<g>
</g>
<g>
</g>
<g>
</g>
<g>
</g>
<g>
</g>
<g>
</g>
<g>
</g>
<g>
</g>
<g>
</g>
<g>
</g>
</svg>
