<?xml version="1.0" encoding="utf-8"?>
<!-- Generator: Adobe Illustrator 24.3.0, SVG Export Plug-In . SVG Version: 6.00 Build 0)  -->
<svg version="1.1" id="Layer_1" xmlns="http://www.w3.org/2000/svg" xmlns:xlink="http://www.w3.org/1999/xlink" x="0px" y="0px"
	 viewBox="0 0 799.86 373.83" style="enable-background:new 0 0 799.86 373.83;" xml:space="preserve">
<g>
	<g>
		<g>
			<g>
				<path style="fill:#F47907;" d="M78.06,88.62H211.4v38.78h-93.07v38.48h87.4v38.78h-87.4v42.06h94.26v38.78H78.06V88.62z"/>
				<path style="fill:#F47907;" d="M315.21,88.62h76.66l63.84,196.88h-43.55l-20.88-60.26h-76.07l-20.29,60.26h-43.55L315.21,88.62z
					 M380.54,186.47l-25.06-80.54h-3.88l-25.06,80.54H380.54z"/>
				<path style="fill:#F47907;" d="M588.75,131.13c-5.57-4.27-14.12-6.41-25.65-6.41c-23.47,0-35.2,7.26-35.2,21.78
					c0,4.18,0.79,7.41,2.39,9.69c1.59,2.29,4.57,4.23,8.95,5.82c4.37,1.59,11.13,3.18,20.28,4.77l21.18,3.88
					c18.89,3.38,33.96,9.5,45.19,18.35c11.23,8.85,16.85,22.22,16.85,40.12c0,19.49-7.16,34.21-21.48,44.15
					c-14.32,9.95-32.81,14.91-55.49,14.91c-15.11,0-28.93-2.68-41.46-8.05c-12.53-5.37-22.57-13.57-30.13-24.61
					c-7.56-11.04-11.44-24.71-11.63-41.02h40.27c0.4,13.12,4.18,22.22,11.33,27.29c7.16,5.07,17.7,7.61,31.62,7.61
					c12.73,0,22.02-1.54,27.89-4.62c5.86-3.08,8.8-8.3,8.8-15.66c0-10.34-11.24-17.4-33.71-21.18l-21.78-3.88
					c-17.11-2.98-31.27-8.7-42.51-17.15c-11.24-8.45-16.85-21.82-16.85-40.12c0-12.93,3.38-24.01,10.14-33.26
					c6.76-9.25,15.86-16.21,27.29-20.88c11.43-4.67,24.11-7.01,38.03-7.01c14.32,0,27.24,2.49,38.78,7.46
					c11.53,4.97,20.78,12.48,27.74,22.52c6.96,10.04,10.54,22.52,10.74,37.44H598.9C597.7,142.72,594.32,135.41,588.75,131.13z"/>
				<path style="fill:#F47907;" d="M721.8,88.62V285.5h-40.27V88.62H721.8z"/>
			</g>
		</g>
	</g>
	<g>
		<polygon style="fill:#F47907;" points="9.53,364.3 9.53,212.35 0,212.35 0,373.83 622.88,373.83 622.88,364.3 		"/>
		<polygon style="fill:#F47907;" points="790.33,9.53 790.33,161.48 799.86,161.48 799.86,0 176.98,0 176.98,9.53 		"/>
	</g>
</g>
<g>
</g>
<g>
</g>
<g>
</g>
<g>
</g>
<g>
</g>
<g>
</g>
<g>
</g>
<g>
</g>
<g>
</g>
<g>
</g>
<g>
</g>
<g>
</g>
<g>
</g>
<g>
</g>
<g>
</g>
</svg>
